<?xml version="1.0" standalone="no"?>
<!DOCTYPE svg PUBLIC "-//W3C//DTD SVG 20010904//EN"
 "http://www.w3.org/TR/2001/REC-SVG-20010904/DTD/svg10.dtd">
<svg version="1.0" xmlns="http://www.w3.org/2000/svg"
 width="94.000000pt" height="125.000000pt" viewBox="0 0 94.000000 125.000000"
 preserveAspectRatio="xMidYMid meet">
<metadata>
Created by potrace 1.10, written by Peter Selinger 2001-2011
</metadata>
<g transform="translate(0.000000,125.000000) scale(0.100000,-0.100000)"
fill="#000000" stroke="none">
<path d="M440 951 c0 -5 -37 -27 -82 -49 -46 -22 -95 -51 -110 -65 -28 -26
-28 -28 -28 -151 0 -75 -4 -126 -10 -128 -6 -2 4 -54 25 -127 20 -68 35 -127
33 -132 -2 -5 -46 -29 -98 -52 -173 -78 -155 -60 -158 -155 l-3 -82 158 1
c172 1 267 9 283 25 7 7 -1 18 -26 35 -38 25 -102 105 -92 115 3 3 23 -10 43
-28 33 -28 45 -32 92 -32 50 0 58 3 87 34 17 19 39 46 48 60 l17 25 0 -38 c1
-23 5 -36 11 -32 6 3 10 24 10 46 0 21 4 39 8 39 24 0 132 -62 155 -89 14 -17
30 -31 36 -31 17 0 43 -47 39 -72 -3 -20 -11 -24 -68 -31 -39 -5 -73 -4 -86 2
-11 5 -27 6 -34 1 -18 -11 -50 0 -50 17 0 11 -6 10 -26 -6 -27 -22 -64 -28
-64 -12 0 5 11 23 25 39 39 47 30 46 -32 -3 -32 -25 -63 -45 -70 -45 -6 0 -15
-5 -18 -10 -4 -7 77 -10 236 -10 l242 0 -7 54 c-7 62 -15 88 -25 81 -4 -2 -31
13 -59 35 -29 21 -78 51 -110 67 -31 15 -65 37 -75 48 -13 14 -20 16 -24 7
-13 -31 -94 -129 -118 -142 -38 -20 -91 -15 -133 12 -20 14 -44 27 -53 30 -9
4 -19 19 -23 35 -16 67 -35 187 -30 195 7 11 51 10 92 -1 29 -9 32 -7 32 11 0
34 31 89 49 86 12 -2 18 -19 22 -63 5 -51 3 -63 -14 -82 -11 -13 -16 -23 -10
-23 5 0 15 -11 21 -25 7 -15 17 -22 26 -19 8 3 17 1 21 -5 4 -8 -17 -11 -67
-10 -48 1 -63 4 -43 8 17 3 29 11 28 16 -4 19 -50 16 -74 -4 -20 -18 -22 -22
-9 -31 8 -5 45 -10 83 -10 68 0 90 -15 40 -26 -49 -10 -60 -17 -40 -21 30 -7
78 18 98 51 10 17 21 30 24 29 3 -2 5 0 5 5 0 4 -14 11 -30 15 -34 9 -48 30
-32 50 13 16 21 77 10 83 -4 3 -8 16 -8 29 0 13 -7 28 -16 33 -14 8 -12 12 11
30 30 24 94 29 139 12 22 -8 26 -16 26 -49 0 -22 -6 -44 -15 -51 -12 -10 -15
-9 -15 4 0 10 5 26 10 37 8 13 7 19 0 19 -6 0 -16 -12 -22 -27 -7 -16 -18 -36
-26 -45 -13 -16 -11 -17 22 -11 39 6 43 1 21 -37 -8 -14 -14 -35 -15 -47 0
-25 18 -41 24 -21 63 226 65 238 41 238 -12 0 -14 18 -12 99 2 84 -1 102 -16
119 -12 13 -16 28 -13 40 7 22 -17 48 -34 37 -6 -4 -20 1 -30 10 -24 22 -140
76 -140 66z m60 -75 c0 -31 16 -42 36 -25 13 11 18 10 25 -4 6 -9 16 -17 24
-17 10 0 11 -5 2 -25 -12 -26 -31 -32 -42 -15 -3 6 -26 10 -50 10 -49 0 -65
17 -65 67 0 22 2 25 10 13 5 -8 10 -10 10 -5 1 6 6 -1 13 -15 l11 -25 4 33 c4
37 22 44 22 8z m-110 -25 c0 -5 -19 -16 -42 -26 -24 -9 -51 -24 -60 -32 -11
-10 -18 -12 -18 -5 0 16 79 72 102 72 10 0 18 -4 18 -9z m31 -70 c17 -13 33
-17 55 -14 42 7 101 -13 118 -40 20 -32 51 -126 44 -133 -4 -3 -17 2 -31 11
-30 19 -62 13 -128 -23 l-45 -25 -41 27 c-30 20 -51 27 -79 24 -54 -4 -57 -28
-4 -28 67 0 126 -43 90 -65 -5 -3 -10 -15 -10 -25 0 -28 -36 -43 -87 -37 -53
6 -60 12 -69 55 -5 24 -3 32 7 32 10 0 13 12 12 43 -2 24 6 69 19 107 20 56
29 68 63 87 50 27 57 27 86 4z m-102 -632 c28 -56 48 -106 45 -110 -7 -12 -61
-11 -102 0 -23 7 -41 6 -58 -1 -18 -8 -34 -8 -64 2 -31 10 -42 10 -54 1 -23
-19 -36 -4 -36 43 0 34 6 48 30 71 17 17 30 23 30 15 0 -10 4 -9 18 3 10 9 33
23 52 32 19 9 46 23 60 30 14 8 26 15 27 15 1 0 25 -46 52 -101z"/>
<path d="M290 536 c0 -12 11 -16 41 -16 52 0 48 24 -4 28 -28 2 -37 -1 -37
-12z"/>
<path d="M542 534 c10 -10 23 -14 34 -10 16 6 16 8 4 16 -8 6 -24 10 -35 10
-18 0 -18 -1 -3 -16z"/>
</g>
</svg>
